<?xml version="1.0" standalone="no"?>
<!DOCTYPE svg PUBLIC "-//W3C//DTD SVG 20010904//EN"
 "http://www.w3.org/TR/2001/REC-SVG-20010904/DTD/svg10.dtd">
<svg version="1.0" xmlns="http://www.w3.org/2000/svg"
 width="306.000000pt" height="161.000000pt" viewBox="0 0 306.000000 161.000000"
 preserveAspectRatio="xMidYMid meet">

<g transform="translate(0.000000,161.000000) scale(0.100000,-0.100000)"
fill="#000000" stroke="none">
<path d="M70 1504 c9 -3 25 -37 38 -83 13 -43 32 -95 41 -117 l18 -39 28 88
c16 48 32 87 35 87 4 0 19 -36 34 -80 16 -44 31 -82 35 -85 4 -2 23 44 42 102
21 65 41 110 54 119 18 13 16 14 -20 13 -22 -1 -33 -3 -23 -6 14 -4 13 -14
-15 -96 l-30 -92 -31 92 c-17 50 -34 94 -37 98 -4 3 -19 -35 -35 -85 -16 -49
-31 -90 -34 -90 -6 0 -50 139 -50 157 0 6 6 14 13 16 6 3 -8 5 -33 5 -25 0
-38 -2 -30 -4z"/>
<path d="M438 1503 c17 -7 17 -204 0 -221 -9 -9 -3 -12 28 -11 21 0 33 3 27 6
-8 3 -13 25 -13 59 l0 54 65 0 65 0 0 -44 c0 -27 -6 -51 -16 -60 -14 -15 -12
-16 28 -15 24 1 35 3 26 6 -16 4 -18 18 -18 107 0 66 4 106 12 114 9 9 3 12
-27 11 -22 -1 -32 -3 -22 -6 13 -3 17 -15 17 -54 l0 -49 -65 0 -65 0 0 49 c0
30 5 51 13 54 6 3 -6 5 -28 5 -22 0 -34 -2 -27 -5z"/>
<path d="M687 1502 c7 -4 30 -36 53 -70 42 -65 53 -125 28 -150 -9 -9 -3 -12
28 -11 21 0 33 3 27 6 -8 3 -13 24 -13 54 0 54 26 116 65 155 l24 24 -37 -1
c-20 -1 -29 -3 -20 -6 16 -4 16 -7 -3 -46 -36 -72 -39 -72 -70 -25 -32 47 -35
64 -16 71 6 3 -8 6 -33 6 -25 0 -40 -3 -33 -7z"/>
<path d="M110 490 l0 -460 155 0 156 0 -3 63 -3 62 -87 3 -88 3 0 394 0 395
-65 0 -65 0 0 -460z"/>
<path d="M480 490 l0 -460 65 0 65 0 0 460 0 460 -65 0 -65 0 0 -460z"/>
<path d="M710 490 l0 -460 80 0 c213 0 290 70 290 265 0 84 -21 153 -60 195
-26 28 -27 30 -9 46 37 33 59 97 59 170 0 182 -71 244 -280 244 l-80 0 0 -460z
m206 309 c22 -18 36 -86 28 -136 -8 -54 -41 -93 -79 -93 l-25 0 0 126 0 127
32 -7 c17 -3 37 -11 44 -17z m-2 -372 c44 -44 43 -194 -1 -238 -10 -10 -29
-20 -43 -21 l-25 -3 -3 143 -3 142 26 0 c14 0 36 -10 49 -23z"/>
<path d="M1170 490 l0 -460 65 0 65 0 0 195 c0 188 1 195 20 195 11 0 20 -2
20 -6 0 -6 58 -327 66 -361 4 -21 10 -23 69 -23 63 0 65 1 60 23 -16 74 -75
394 -75 409 0 9 11 33 24 53 68 100 54 309 -25 382 -40 36 -103 53 -200 53
l-89 0 0 -460z m196 306 c24 -20 28 -32 32 -89 6 -88 -11 -135 -54 -153 -18
-8 -36 -14 -39 -14 -3 0 -5 63 -5 140 0 132 1 140 19 140 11 0 32 -11 47 -24z"/>
<path d="M1716 923 c-3 -16 -24 -152 -46 -303 -40 -267 -74 -491 -85 -557 l-6
-33 64 0 65 0 6 42 c3 24 8 67 12 95 l7 53 67 0 68 0 11 -75 c6 -42 11 -85 11
-95 0 -18 7 -20 65 -20 36 0 65 2 65 5 0 3 -9 60 -19 128 -11 67 -29 185 -40
262 -42 285 -71 481 -76 503 -5 20 -11 22 -84 22 -79 0 -79 0 -85 -27z m118
-443 c8 -63 14 -116 12 -118 -2 -2 -24 -2 -48 0 l-44 3 18 145 c10 80 21 152
25 160 7 18 16 -28 37 -190z"/>
<path d="M2090 490 l0 -460 65 0 65 0 0 195 c0 186 1 195 19 195 22 0 20 9 56
-200 14 -80 27 -155 30 -167 5 -21 11 -23 70 -23 36 0 65 3 64 8 0 4 -19 104
-43 222 l-43 215 23 27 c35 43 49 96 49 188 0 189 -72 260 -266 260 l-89 0 0
-460z m181 320 c46 -25 65 -141 35 -214 -16 -37 -19 -40 -58 -50 l-28 -6 0
140 c0 150 2 156 51 130z"/>
<path d="M2500 945 c0 -2 28 -107 62 -232 l61 -228 6 -225 6 -225 65 0 65 0 5
225 c3 124 8 230 12 235 5 9 118 436 118 449 0 3 -28 6 -63 6 l-64 0 -31 -143
c-18 -79 -32 -147 -32 -150 0 -4 -4 -7 -8 -7 -4 0 -23 68 -41 150 l-34 150
-63 0 c-35 0 -64 -2 -64 -5z"/>
</g>
</svg>
